<svg xmlns="http://www.w3.org/2000/svg" xmlns:xlink="http://www.w3.org/1999/xlink" version="1.1" x="0px" y="0px" viewBox="0 0 100 100" enable-background="new 0 0 100 100" xml:space="preserve"><path fill="#727272" d="M90.6,75.3L59.9,22c-0.5-0.8-1.4-1.3-2.3-1.3c-1,0-1.8,0.5-2.3,1.3L39,50.2l-5.3-9.1  c-0.5-0.8-1.4-1.3-2.3-1.3c-1,0-1.8,0.5-2.3,1.3L9.4,75.3c-0.5,0.8-0.5,1.8,0,2.7c0.5,0.8,1.4,1.3,2.3,1.3h15.1h24.3h37.2  c1,0,1.8-0.5,2.3-1.3C91.1,77.1,91.1,76.1,90.6,75.3z M31.4,42.5l3.7,6.4l-3.7,6.4l-3.7-6.4L31.4,42.5z M57.6,42.2l-5.4-9.4l5.4-9.4  l5.4,9.4L57.6,42.2z"/></svg>
