<svg xmlns="http://www.w3.org/2000/svg" xmlns:xlink="http://www.w3.org/1999/xlink" version="1.1" x="0px" y="0px" viewBox="0 0 72 72" enable-background="new 0 0 72 72" xml:space="preserve"><path fill="#727272" d="M62.2,22.1l-1.1-0.2l9.2-5.8c0.8-0.5,0.6-1.7-0.3-1.9L15.3,0.5c-0.6-0.1-1.2,0.2-1.3,0.8l-3.7,17.4  c-0.1,0.6,0.2,1.1,0.8,1.3l14.5,3.1c0.6,0.1,0.9,0.7,0.8,1.3l-1.7,6.8c-0.3,1.4,0.5,2.8,1.8,3.2l2.5,0.7v14.5c0,0.6-0.5,1.1-1.1,1.1  H5.8c-0.6,0-1.1-0.5-1.1-1.1V26.5c0-0.6-0.5-1.1-1.1-1.1H2.2c-0.6,0-1.1,0.5-1.1,1.1v43.9c0,0.6,0.5,1.1,1.1,1.1h1.4  c0.6,0,1.1-0.5,1.1-1.1V56.8c0-0.6,0.5-1.1,1.1-1.1h27.2c0.6,0,1.1-0.5,1.1-1.1v-4V36.4l3.7,1c1.3,0.4,2.7-0.5,3.1-1.9l1.9-7.6  c0.1-0.6,0.7-0.9,1.3-0.8l14.3,3.1c0.6,0.1,1.2-0.3,1.3-0.9l0.3-2.2c0.1-0.5,0.6-0.9,1.1-0.8l0.7,0.1c0.9,0.1,1.7-0.5,1.8-1.3  l0.2-1.1C63.7,23.1,63.1,22.2,62.2,22.1z"/></svg>
