<svg xmlns="http://www.w3.org/2000/svg" xmlns:xlink="http://www.w3.org/1999/xlink" version="1.1" x="0px" y="0px" viewBox="0 0 100 100" enable-background="new 0 0 100 100" xml:space="preserve"><g><path d="M80.857,80.857c0-4.148,1.532-7.926,4.037-10.849l-0.181-0.723h-5.973c6.109-6.823,9.83-15.833,9.83-25.714   C88.571,22.269,71.302,5,50,5C28.698,5,11.429,22.269,11.429,43.572c0,9.883,3.72,18.894,9.834,25.719   c-0.003-0.003-0.004-0.003-0.005-0.005h-5.971l-0.181,0.723c2.505,2.923,4.038,6.7,4.038,10.849c0,5.617-2.784,10.576-7.036,13.605   L12.287,95h14.571C33.305,90.158,32,88,50,88s16.696,2.158,23.143,7h14.571l0.18-0.538C83.64,91.434,80.857,86.475,80.857,80.857z    M85.602,38.237l-2.544,0.335l0.169,1.274l2.538-0.335c0.15,1.334,0.235,2.687,0.235,4.06c0,1.374-0.086,2.727-0.235,4.061   l-2.536-0.334l-0.168,1.274l2.541,0.335c-0.406,2.726-1.126,5.349-2.11,7.841l-2.365-0.98l-0.06,0.143   c1.519-3.819,2.362-7.979,2.362-12.339c0-4.479-0.888-8.749-2.486-12.653l0.189,0.454l2.36-0.978   C84.476,32.887,85.195,35.511,85.602,38.237z M83.001,29.206l-2.362,0.978l0.076,0.185c-1.032-2.396-2.333-4.649-3.869-6.717   l0.063,0.083l2.026-1.555C80.542,24.349,81.908,26.705,83.001,29.206z M28.958,66.071v0.04c-2.039-1.903-3.823-4.078-5.287-6.469   h52.658c-1.464,2.391-3.248,4.565-5.287,6.469v-0.04H28.958z M69.635,67.357C64.296,71.771,57.453,74.429,50,74.429   c-7.452,0-14.296-2.657-19.635-7.071h33.282H69.635z M22.925,58.357c-1.106-2.017-1.986-4.171-2.622-6.429h59.395   c-0.637,2.258-1.517,4.412-2.623,6.429H22.925z M19.971,50.644c-0.487-2.071-0.766-4.221-0.812-6.429h61.682   c-0.046,2.208-0.323,4.357-0.812,6.429H19.971z M19.159,42.929c0.045-2.207,0.324-4.357,0.812-6.428h60.059   c0.488,2.071,0.766,4.221,0.812,6.428H19.159z M71.042,21.072v-0.04c2.039,1.905,3.823,4.078,5.289,6.469h-52.66   c1.464-2.391,3.248-4.564,5.287-6.469v0.04H71.042z M30.365,19.787c5.339-4.415,12.182-7.071,19.635-7.071   s14.296,2.656,19.636,7.071H30.365z M77.075,28.787c1.106,2.017,1.986,4.171,2.623,6.428H20.303   c0.635-2.257,1.516-4.412,2.622-6.428H77.075z M63.385,12.939l0.98-2.368c2.502,1.093,4.858,2.459,7.027,4.067l-1.552,2.023   l1.02,0.782l1.547-2.018c2.122,1.692,4.047,3.618,5.739,5.739l-2.021,1.551l0.453,0.589c-3.429-4.489-7.967-8.081-13.208-10.371   L63.385,12.939z M44.665,7.969L45,10.514l1.274-0.168l-0.335-2.54c1.334-0.151,2.687-0.235,4.06-0.235   c1.374,0,2.727,0.084,4.06,0.235l-0.335,2.537l1.275,0.168l0.337-2.542c2.725,0.407,5.347,1.127,7.839,2.11l-0.981,2.367   l0.143,0.059c-3.818-1.518-7.98-2.361-12.339-2.361c-4.507,0-8.804,0.898-12.727,2.515L37.8,12.44l-0.977-2.361   C39.315,9.096,41.938,8.376,44.665,7.969z M35.635,10.571l0.977,2.362l0.226-0.094c-2.413,1.035-4.68,2.344-6.759,3.89l0.084-0.064   l-1.556-2.026C30.776,13.03,33.133,11.665,35.635,10.571z M21.065,22.18l2.024,1.553l0.782-1.019l-2.018-1.548   c1.692-2.121,3.617-4.047,5.739-5.739l1.55,2.021l0.618-0.474c-4.505,3.433-8.108,7.982-10.403,13.236l0.009-0.021l-2.368-0.981   C18.092,26.704,19.458,24.348,21.065,22.18z M14.398,48.908l2.544-0.335l-0.168-1.274l-2.539,0.335   C14.084,46.299,14,44.945,14,43.572c0-1.373,0.084-2.727,0.234-4.06l2.538,0.334l0.168-1.274l-2.544-0.335   c0.407-2.726,1.127-5.35,2.112-7.842l2.366,0.98l0.064-0.154c-1.522,3.822-2.367,7.987-2.367,12.352   c0,4.491,0.891,8.772,2.499,12.685l-0.201-0.485l-2.36,0.979C15.524,54.257,14.805,51.634,14.398,48.908z M21.066,64.964   c-1.607-2.167-2.973-4.525-4.066-7.026l2.361-0.978l-0.084-0.201c1.035,2.407,2.342,4.667,3.886,6.744l-0.072-0.094L21.066,64.964z    M35.635,76.573c-2.502-1.093-4.858-2.459-7.026-4.065l1.552-2.024L29.141,69.7l-1.548,2.017c-2.121-1.69-4.047-3.616-5.739-5.738   l2.02-1.55l-0.493-0.643c3.429,4.512,7.98,8.119,13.234,10.42L35.635,76.573z M55.335,79.175l-0.334-2.544l-1.275,0.168   l0.334,2.539c-1.334,0.148-2.688,0.233-4.06,0.233c-1.373,0-2.726-0.085-4.06-0.233l0.334-2.536l-1.274-0.169l-0.334,2.542   c-2.725-0.407-5.35-1.128-7.841-2.112l0.979-2.365l-0.142-0.058C41.481,76.156,45.641,77,50,77c4.497,0,8.785-0.895,12.702-2.504   l-0.503,0.209l0.977,2.357C60.685,78.047,58.06,78.768,55.335,79.175z M64.365,76.573l-0.978-2.36l-0.21,0.085   c2.402-1.032,4.661-2.335,6.734-3.875l-0.074,0.058l1.555,2.027C69.223,74.114,66.867,75.48,64.365,76.573z M72.407,71.719   l-1.551-2.022l-0.561,0.43c4.477-3.425,8.059-7.955,10.345-13.184l-0.006,0.013L83,57.938c-1.094,2.501-2.458,4.856-4.065,7.026   l-2.022-1.552l-0.783,1.019l2.018,1.547C76.454,68.101,74.527,70.026,72.407,71.719z"/></g></svg>
